<svg xmlns="http://www.w3.org/2000/svg" xmlns:xlink="http://www.w3.org/1999/xlink" width="100" zoomAndPan="magnify" viewBox="0 0 75 74.999997" height="100" preserveAspectRatio="xMidYMid meet" version="1.0"><defs><clipPath id="93ba0121da"><path d="M 0 7.5 L 75 7.5 L 75 67.5 L 0 67.5 Z M 0 7.5 " clip-rule="nonzero"/></clipPath></defs><g clip-path="url(#93ba0121da)"><path fill="#ffffff" d="M 71.765625 17.644531 L 55.800781 17.644531 L 55.261719 13.828125 L 54.847656 11.257812 C 54.679688 10.222656 54.132812 9.363281 53.273438 8.644531 C 52.390625 7.910156 51.449219 7.527344 50.410156 7.527344 L 24.453125 7.527344 C 23.417969 7.527344 22.464844 7.898438 21.59375 8.644531 C 20.722656 9.394531 20.257812 10.269531 20.101562 11.257812 L 19.683594 13.828125 L 19.105469 17.644531 L 3.222656 17.644531 C 1.109375 17.644531 -0.589844 19.34375 -0.589844 21.375 L -0.589844 63.671875 C -0.589844 65.785156 1.109375 67.484375 3.222656 67.484375 L 71.765625 67.484375 C 73.878906 67.484375 75.578125 65.785156 75.578125 63.671875 L 75.578125 21.375 C 75.578125 19.34375 73.878906 17.644531 71.765625 17.644531 Z M 70.976562 62.882812 L 3.972656 62.882812 L 3.972656 22.207031 L 19.105469 22.207031 C 21.386719 22.207031 23.355469 20.507812 23.667969 18.308594 L 24.207031 14.492188 L 24.621094 12.128906 L 50.328125 12.128906 L 50.703125 14.492188 L 51.28125 18.308594 C 51.617188 20.503906 53.605469 22.207031 55.800781 22.207031 L 70.976562 22.207031 Z M 70.976562 62.882812 " fill-opacity="1" fill-rule="nonzero"/></g><path fill="#ffffff" d="M 63.597656 33.027344 C 65.585938 33.027344 67.246094 31.328125 67.246094 29.339844 C 67.246094 27.304688 65.628906 25.605469 63.597656 25.605469 C 61.566406 25.605469 59.949219 27.304688 59.949219 29.339844 C 59.949219 31.328125 61.605469 33.027344 63.597656 33.027344 Z M 63.597656 33.027344 " fill-opacity="1" fill-rule="nonzero"/><path fill="#ffffff" d="M 37.433594 23.40625 C 32.746094 23.40625 28.683594 25.109375 25.324219 28.464844 C 21.964844 31.824219 20.265625 35.890625 20.265625 40.574219 C 20.265625 45.257812 21.964844 49.324219 25.324219 52.683594 C 28.683594 56.039062 32.746094 57.628906 37.433594 57.699219 C 46.722656 57.835938 54.707031 49.78125 54.597656 40.574219 C 54.542969 35.847656 52.898438 31.824219 49.539062 28.464844 C 46.179688 25.109375 42.160156 23.40625 37.433594 23.40625 Z M 46.304688 49.488281 C 43.859375 51.933594 40.914062 53.136719 37.433594 53.136719 C 33.992188 53.136719 31.046875 51.9375 28.601562 49.488281 C 26.152344 47.042969 24.953125 44.058594 24.953125 40.574219 C 24.953125 37.132812 26.152344 34.148438 28.601562 31.699219 C 31.046875 29.253906 33.992188 28.011719 37.433594 28.011719 C 40.914062 28.011719 43.859375 29.253906 46.304688 31.699219 C 48.753906 34.148438 49.996094 37.132812 49.996094 40.574219 C 49.996094 44.058594 48.753906 47.042969 46.304688 49.488281 Z M 46.304688 49.488281 " fill-opacity="1" fill-rule="nonzero"/></svg>