<svg xmlns="http://www.w3.org/2000/svg" xmlns:xlink="http://www.w3.org/1999/xlink" width="100" zoomAndPan="magnify" viewBox="0 0 75 74.999997" height="100" preserveAspectRatio="xMidYMid meet" version="1.0"><defs><clipPath id="c410cf0654"><path d="M 6 0 L 69.863281 0 L 69.863281 74 L 6 74 Z M 6 0 " clip-rule="nonzero"/></clipPath></defs><g clip-path="url(#c410cf0654)"><path fill="#ffffff" d="M 60.757812 67.8125 C 62.574219 66.730469 63.882812 65.410156 64.753906 63.910156 C 65.472656 62.667969 65.90625 61.28125 66.09375 59.78125 L 51.660156 50.394531 L 46.40625 54.148438 C 45.8125 54.566406 45.046875 54.5625 44.472656 54.191406 C 42.136719 52.789062 39.898438 51.109375 37.816406 49.171875 C 35.78125 47.28125 33.886719 45.136719 32.183594 42.746094 C 30.292969 40.101562 28.757812 37.328125 27.574219 34.496094 C 26.347656 31.574219 25.496094 28.582031 25.007812 25.605469 C 24.898438 24.921875 25.203125 24.269531 25.742188 23.90625 L 30.378906 20.59375 L 26.179688 3.894531 C 24.703125 3.585938 23.253906 3.546875 21.84375 3.824219 C 20.140625 4.160156 18.472656 4.972656 16.859375 6.332031 C 9.6875 12.390625 9.0625 22.484375 12.339844 32.859375 C 14.167969 38.644531 17.195312 44.496094 20.988281 49.804688 C 24.78125 55.117188 29.332031 59.878906 34.207031 63.480469 C 42.949219 69.945312 52.703125 72.628906 60.761719 67.8125 Z M 67.730469 65.632812 C 66.570312 67.628906 64.863281 69.359375 62.519531 70.761719 C 53.078125 76.40625 41.96875 73.496094 32.15625 66.242188 C 26.992188 62.425781 22.179688 57.394531 18.183594 51.796875 C 14.179688 46.191406 10.984375 40.011719 9.050781 33.898438 C 5.378906 22.261719 6.230469 10.808594 14.636719 3.710938 C 16.71875 1.949219 18.914062 0.894531 21.179688 0.445312 C 23.417969 0.00390625 25.703125 0.15625 28.003906 0.800781 C 28.605469 0.949219 29.105469 1.414062 29.265625 2.054688 L 34 20.890625 L 33.996094 20.890625 C 34.164062 21.558594 33.917969 22.289062 33.324219 22.707031 L 28.585938 26.09375 C 29.050781 28.457031 29.769531 30.835938 30.746094 33.175781 C 31.835938 35.777344 33.246094 38.324219 34.980469 40.753906 C 36.542969 42.941406 38.285156 44.910156 40.15625 46.652344 C 41.796875 48.179688 43.535156 49.527344 45.339844 50.683594 L 50.617188 46.914062 C 51.175781 46.519531 51.941406 46.476562 52.550781 46.875 L 68.777344 57.429688 C 69.304688 57.746094 69.644531 58.335938 69.609375 58.992188 C 69.484375 61.402344 68.886719 63.640625 67.726562 65.632812 Z M 67.730469 65.632812 " fill-opacity="1" fill-rule="nonzero"/></g></svg>