<svg xmlns="http://www.w3.org/2000/svg" xmlns:xlink="http://www.w3.org/1999/xlink" width="100" zoomAndPan="magnify" viewBox="0 0 75 74.999997" height="100" preserveAspectRatio="xMidYMid meet" version="1.0"><defs><clipPath id="4ddd713c22"><path d="M 0 14.25 L 75 14.25 L 75 60.75 L 0 60.75 Z M 0 14.25 " clip-rule="nonzero"/></clipPath></defs><g clip-path="url(#4ddd713c22)"><path fill="#ffffff" d="M 7.230469 60.820312 L 50.089844 60.820312 C 50.554688 60.816406 51.015625 60.773438 51.472656 60.679688 C 51.929688 60.589844 52.371094 60.457031 52.800781 60.277344 C 53.230469 60.097656 53.640625 59.878906 54.027344 59.621094 C 54.410156 59.363281 54.769531 59.070312 55.097656 58.742188 C 55.425781 58.414062 55.722656 58.054688 55.980469 57.667969 C 56.238281 57.28125 56.457031 56.875 56.632812 56.445312 C 56.8125 56.015625 56.949219 55.570312 57.039062 55.117188 C 57.128906 54.660156 57.175781 54.199219 57.175781 53.734375 L 57.175781 48.890625 L 68.027344 54.761719 C 68.203125 54.859375 68.382812 54.941406 68.570312 55.011719 C 68.753906 55.085938 68.945312 55.144531 69.140625 55.191406 C 69.332031 55.238281 69.527344 55.273438 69.726562 55.292969 C 69.925781 55.316406 70.125 55.324219 70.324219 55.320312 C 70.523438 55.316406 70.722656 55.300781 70.917969 55.269531 C 71.117188 55.238281 71.3125 55.199219 71.503906 55.140625 C 71.695312 55.085938 71.882812 55.019531 72.066406 54.941406 C 72.25 54.863281 72.425781 54.769531 72.597656 54.667969 C 72.769531 54.566406 72.933594 54.453125 73.089844 54.332031 C 73.246094 54.207031 73.394531 54.074219 73.535156 53.933594 C 73.671875 53.789062 73.804688 53.640625 73.921875 53.480469 C 74.042969 53.320312 74.152344 53.152344 74.25 52.980469 C 74.347656 52.808594 74.4375 52.628906 74.511719 52.441406 C 74.585938 52.257812 74.648438 52.070312 74.699219 51.878906 C 74.753906 51.683594 74.789062 51.488281 74.816406 51.289062 C 74.839844 51.09375 74.855469 50.894531 74.855469 50.695312 L 74.855469 24.433594 C 74.855469 24.234375 74.839844 24.035156 74.816406 23.835938 C 74.789062 23.640625 74.753906 23.445312 74.699219 23.25 C 74.648438 23.058594 74.585938 22.871094 74.511719 22.683594 C 74.4375 22.5 74.347656 22.320312 74.25 22.148438 C 74.152344 21.976562 74.042969 21.808594 73.921875 21.648438 C 73.804688 21.488281 73.671875 21.339844 73.535156 21.195312 C 73.394531 21.054688 73.246094 20.921875 73.089844 20.796875 C 72.933594 20.675781 72.769531 20.5625 72.597656 20.460938 C 72.425781 20.355469 72.25 20.265625 72.066406 20.1875 C 71.882812 20.109375 71.695312 20.042969 71.503906 19.988281 C 71.3125 19.929688 71.117188 19.890625 70.917969 19.859375 C 70.722656 19.828125 70.523438 19.8125 70.324219 19.808594 C 70.125 19.804688 69.925781 19.8125 69.726562 19.835938 C 69.527344 19.855469 69.332031 19.890625 69.140625 19.9375 C 68.945312 19.984375 68.753906 20.042969 68.570312 20.117188 C 68.382812 20.1875 68.203125 20.269531 68.027344 20.363281 L 57.175781 26.238281 L 57.175781 21.394531 C 57.175781 20.929688 57.128906 20.46875 57.039062 20.011719 C 56.949219 19.558594 56.8125 19.113281 56.632812 18.683594 C 56.457031 18.253906 56.238281 17.847656 55.980469 17.460938 C 55.722656 17.074219 55.425781 16.714844 55.097656 16.386719 C 54.769531 16.058594 54.410156 15.765625 54.027344 15.507812 C 53.640625 15.25 53.230469 15.03125 52.800781 14.851562 C 52.371094 14.671875 51.929688 14.539062 51.472656 14.449219 C 51.015625 14.355469 50.554688 14.3125 50.089844 14.308594 L 7.230469 14.308594 C 6.765625 14.3125 6.304688 14.355469 5.847656 14.449219 C 5.390625 14.539062 4.949219 14.671875 4.519531 14.851562 C 4.089844 15.03125 3.683594 15.25 3.296875 15.507812 C 2.910156 15.765625 2.550781 16.058594 2.222656 16.386719 C 1.894531 16.714844 1.601562 17.074219 1.34375 17.460938 C 1.082031 17.847656 0.863281 18.253906 0.6875 18.683594 C 0.507812 19.113281 0.375 19.558594 0.28125 20.011719 C 0.191406 20.46875 0.144531 20.929688 0.144531 21.394531 L 0.144531 53.734375 C 0.144531 54.199219 0.191406 54.660156 0.28125 55.117188 C 0.375 55.570312 0.507812 56.015625 0.6875 56.445312 C 0.863281 56.875 1.082031 57.28125 1.34375 57.667969 C 1.601562 58.054688 1.894531 58.414062 2.222656 58.742188 C 2.550781 59.070312 2.910156 59.363281 3.296875 59.621094 C 3.683594 59.878906 4.089844 60.097656 4.519531 60.277344 C 4.949219 60.457031 5.390625 60.589844 5.847656 60.679688 C 6.304688 60.773438 6.765625 60.816406 7.230469 60.820312 Z M 69.867188 23.765625 C 69.984375 23.699219 70.109375 23.667969 70.242188 23.671875 C 70.378906 23.675781 70.503906 23.710938 70.617188 23.78125 C 70.734375 23.847656 70.824219 23.941406 70.890625 24.058594 C 70.957031 24.175781 70.992188 24.300781 70.992188 24.433594 L 70.992188 50.695312 C 70.992188 50.828125 70.957031 50.953125 70.890625 51.070312 C 70.824219 51.1875 70.734375 51.28125 70.617188 51.347656 C 70.503906 51.417969 70.378906 51.453125 70.242188 51.457031 C 70.109375 51.460938 69.984375 51.429688 69.867188 51.363281 L 57.175781 44.496094 L 57.175781 30.632812 Z M 4.007812 21.394531 C 4.011719 20.96875 4.09375 20.558594 4.253906 20.164062 C 4.417969 19.769531 4.652344 19.421875 4.953125 19.117188 C 5.253906 18.816406 5.605469 18.585938 6 18.421875 C 6.390625 18.257812 6.804688 18.175781 7.230469 18.175781 L 50.089844 18.175781 C 50.519531 18.175781 50.929688 18.257812 51.324219 18.421875 C 51.71875 18.585938 52.066406 18.816406 52.367188 19.117188 C 52.667969 19.421875 52.902344 19.769531 53.066406 20.164062 C 53.230469 20.558594 53.3125 20.96875 53.3125 21.394531 L 53.3125 53.734375 C 53.3125 54.160156 53.230469 54.570312 53.066406 54.964844 C 52.902344 55.359375 52.667969 55.707031 52.367188 56.011719 C 52.066406 56.3125 51.71875 56.542969 51.324219 56.707031 C 50.929688 56.871094 50.519531 56.953125 50.089844 56.953125 L 7.230469 56.953125 C 6.804688 56.953125 6.390625 56.871094 6 56.707031 C 5.605469 56.542969 5.253906 56.3125 4.953125 56.011719 C 4.652344 55.707031 4.417969 55.359375 4.253906 54.964844 C 4.09375 54.570312 4.011719 54.160156 4.007812 53.734375 Z M 4.007812 21.394531 " fill-opacity="1" fill-rule="nonzero"/></g></svg>