<svg xmlns="http://www.w3.org/2000/svg" xmlns:xlink="http://www.w3.org/1999/xlink" width="100" zoomAndPan="magnify" viewBox="0 0 75 74.999997" height="100" preserveAspectRatio="xMidYMid meet" version="1.0"><path fill="#ffffff" d="M 37.5 75 C 36.84375 75 36.3125 74.46875 36.3125 73.808594 L 36.3125 38.6875 L 1.1875 38.6875 C 0.53125 38.6875 0 38.15625 0 37.5 C 0 36.84375 0.53125 36.3125 1.1875 36.3125 L 36.3125 36.3125 L 36.3125 1.1875 C 36.3125 0.53125 36.84375 0 37.5 0 C 38.15625 0 38.6875 0.53125 38.6875 1.1875 L 38.6875 36.3125 L 73.808594 36.3125 C 74.46875 36.3125 75 36.84375 75 37.5 C 75 38.15625 74.46875 38.6875 73.808594 38.6875 L 38.6875 38.6875 L 38.6875 73.808594 C 38.6875 74.46875 38.15625 75 37.5 75 Z M 37.5 75 " fill-opacity="1" fill-rule="nonzero"/></svg>