<svg xmlns="http://www.w3.org/2000/svg" xmlns:xlink="http://www.w3.org/1999/xlink" width="100" zoomAndPan="magnify" viewBox="0 0 75 74.999997" height="100" preserveAspectRatio="xMidYMid meet" version="1.0"><defs><clipPath id="7899df3dc3"><path d="M 10.734375 0 L 63.984375 0 L 63.984375 75 L 10.734375 75 Z M 10.734375 0 " clip-rule="nonzero"/></clipPath></defs><g clip-path="url(#7899df3dc3)"><path fill="#ffffff" d="M 37.5 57.128906 C 38.140625 57.125 38.785156 57.09375 39.421875 57.03125 C 40.0625 56.964844 40.695312 56.871094 41.328125 56.746094 C 41.957031 56.617188 42.578125 56.460938 43.195312 56.273438 C 43.808594 56.085938 44.414062 55.871094 45.003906 55.625 C 45.597656 55.378906 46.179688 55.101562 46.746094 54.800781 C 47.3125 54.496094 47.863281 54.167969 48.394531 53.808594 C 48.929688 53.453125 49.445312 53.070312 49.941406 52.660156 C 50.4375 52.253906 50.914062 51.824219 51.367188 51.367188 C 51.824219 50.914062 52.253906 50.4375 52.660156 49.941406 C 53.070312 49.445312 53.453125 48.929688 53.808594 48.394531 C 54.167969 47.863281 54.496094 47.3125 54.800781 46.746094 C 55.101562 46.179688 55.378906 45.597656 55.625 45.003906 C 55.871094 44.414062 56.085938 43.808594 56.273438 43.195312 C 56.460938 42.578125 56.617188 41.957031 56.746094 41.328125 C 56.871094 40.695312 56.964844 40.0625 57.03125 39.421875 C 57.09375 38.785156 57.128906 38.140625 57.128906 37.5 L 57.128906 19.65625 C 57.128906 19.011719 57.097656 18.371094 57.035156 17.730469 C 56.96875 17.09375 56.875 16.457031 56.75 15.828125 C 56.625 15.195312 56.46875 14.574219 56.28125 13.957031 C 56.097656 13.34375 55.878906 12.738281 55.632812 12.144531 C 55.386719 11.550781 55.113281 10.96875 54.808594 10.402344 C 54.507812 9.835938 54.175781 9.285156 53.820312 8.75 C 53.464844 8.21875 53.082031 7.703125 52.671875 7.203125 C 52.265625 6.707031 51.832031 6.230469 51.378906 5.777344 C 50.925781 5.324219 50.449219 4.890625 49.953125 4.484375 C 49.453125 4.074219 48.9375 3.691406 48.40625 3.335938 C 47.871094 2.980469 47.320312 2.648438 46.753906 2.347656 C 46.1875 2.042969 45.605469 1.769531 45.011719 1.523438 C 44.417969 1.277344 43.8125 1.058594 43.199219 0.875 C 42.582031 0.6875 41.960938 0.53125 41.328125 0.40625 C 40.699219 0.28125 40.0625 0.1875 39.425781 0.121094 C 38.785156 0.0585938 38.144531 0.0273438 37.5 0.0273438 C 36.855469 0.0273438 36.214844 0.0585938 35.574219 0.121094 C 34.9375 0.1875 34.300781 0.28125 33.671875 0.40625 C 33.039062 0.53125 32.417969 0.6875 31.800781 0.875 C 31.1875 1.058594 30.582031 1.277344 29.988281 1.523438 C 29.394531 1.769531 28.8125 2.042969 28.246094 2.347656 C 27.679688 2.648438 27.128906 2.980469 26.59375 3.335938 C 26.0625 3.691406 25.546875 4.074219 25.046875 4.484375 C 24.550781 4.890625 24.074219 5.324219 23.621094 5.777344 C 23.167969 6.230469 22.734375 6.707031 22.328125 7.203125 C 21.917969 7.703125 21.535156 8.21875 21.179688 8.75 C 20.824219 9.285156 20.492188 9.835938 20.191406 10.402344 C 19.886719 10.96875 19.613281 11.550781 19.367188 12.144531 C 19.121094 12.738281 18.902344 13.34375 18.71875 13.957031 C 18.53125 14.574219 18.375 15.195312 18.25 15.828125 C 18.125 16.457031 18.03125 17.09375 17.964844 17.730469 C 17.902344 18.371094 17.871094 19.011719 17.871094 19.65625 L 17.871094 37.5 C 17.871094 38.140625 17.90625 38.785156 17.96875 39.421875 C 18.035156 40.0625 18.128906 40.695312 18.253906 41.328125 C 18.382812 41.957031 18.539062 42.578125 18.726562 43.195312 C 18.914062 43.808594 19.128906 44.414062 19.375 45.003906 C 19.621094 45.597656 19.898438 46.179688 20.199219 46.746094 C 20.503906 47.3125 20.832031 47.863281 21.191406 48.394531 C 21.546875 48.929688 21.929688 49.445312 22.339844 49.941406 C 22.746094 50.4375 23.175781 50.914062 23.632812 51.367188 C 24.085938 51.824219 24.5625 52.253906 25.058594 52.660156 C 25.554688 53.070312 26.070312 53.453125 26.605469 53.808594 C 27.136719 54.167969 27.6875 54.496094 28.253906 54.800781 C 28.820312 55.101562 29.402344 55.378906 29.996094 55.625 C 30.585938 55.871094 31.191406 56.085938 31.804688 56.273438 C 32.421875 56.460938 33.042969 56.617188 33.671875 56.746094 C 34.304688 56.871094 34.9375 56.964844 35.578125 57.03125 C 36.214844 57.09375 36.859375 57.125 37.5 57.128906 Z M 21.441406 19.65625 C 21.441406 19.128906 21.464844 18.605469 21.519531 18.082031 C 21.570312 17.558594 21.648438 17.039062 21.75 16.523438 C 21.851562 16.007812 21.980469 15.496094 22.132812 14.996094 C 22.285156 14.492188 22.460938 13.996094 22.664062 13.511719 C 22.863281 13.023438 23.089844 12.550781 23.335938 12.085938 C 23.585938 11.621094 23.855469 11.171875 24.148438 10.734375 C 24.4375 10.296875 24.753906 9.875 25.085938 9.46875 C 25.417969 9.0625 25.773438 8.671875 26.144531 8.300781 C 26.515625 7.929688 26.90625 7.574219 27.3125 7.242188 C 27.71875 6.910156 28.140625 6.59375 28.578125 6.304688 C 29.015625 6.011719 29.464844 5.742188 29.929688 5.492188 C 30.394531 5.246094 30.867188 5.019531 31.355469 4.820312 C 31.839844 4.617188 32.335938 4.441406 32.839844 4.289062 C 33.339844 4.136719 33.851562 4.007812 34.367188 3.90625 C 34.882812 3.804688 35.402344 3.726562 35.925781 3.675781 C 36.449219 3.621094 36.972656 3.597656 37.5 3.597656 C 38.027344 3.597656 38.550781 3.621094 39.074219 3.675781 C 39.597656 3.726562 40.117188 3.804688 40.632812 3.90625 C 41.148438 4.007812 41.660156 4.136719 42.160156 4.289062 C 42.664062 4.441406 43.160156 4.617188 43.644531 4.820312 C 44.132812 5.019531 44.605469 5.246094 45.070312 5.492188 C 45.535156 5.742188 45.984375 6.011719 46.421875 6.304688 C 46.859375 6.59375 47.28125 6.910156 47.6875 7.242188 C 48.09375 7.574219 48.484375 7.929688 48.855469 8.300781 C 49.226562 8.671875 49.582031 9.0625 49.914062 9.46875 C 50.246094 9.875 50.5625 10.296875 50.851562 10.734375 C 51.144531 11.171875 51.414062 11.621094 51.664062 12.085938 C 51.910156 12.550781 52.136719 13.023438 52.335938 13.511719 C 52.539062 13.996094 52.714844 14.492188 52.867188 14.996094 C 53.019531 15.496094 53.148438 16.007812 53.25 16.523438 C 53.351562 17.039062 53.429688 17.558594 53.480469 18.082031 C 53.535156 18.605469 53.558594 19.128906 53.558594 19.65625 L 53.558594 37.5 C 53.558594 38.027344 53.535156 38.550781 53.480469 39.074219 C 53.429688 39.597656 53.351562 40.117188 53.25 40.632812 C 53.148438 41.148438 53.019531 41.660156 52.867188 42.160156 C 52.714844 42.664062 52.539062 43.160156 52.335938 43.644531 C 52.136719 44.132812 51.910156 44.605469 51.664062 45.070312 C 51.414062 45.535156 51.144531 45.984375 50.851562 46.421875 C 50.5625 46.859375 50.246094 47.28125 49.914062 47.6875 C 49.582031 48.09375 49.226562 48.484375 48.855469 48.855469 C 48.484375 49.226562 48.09375 49.582031 47.6875 49.914062 C 47.28125 50.246094 46.859375 50.5625 46.421875 50.851562 C 45.984375 51.144531 45.535156 51.414062 45.070312 51.664062 C 44.605469 51.910156 44.132812 52.136719 43.644531 52.335938 C 43.160156 52.539062 42.664062 52.714844 42.160156 52.867188 C 41.660156 53.019531 41.148438 53.148438 40.632812 53.25 C 40.117188 53.351562 39.597656 53.429688 39.074219 53.480469 C 38.550781 53.535156 38.027344 53.558594 37.5 53.558594 C 36.972656 53.558594 36.449219 53.535156 35.925781 53.480469 C 35.402344 53.429688 34.882812 53.351562 34.367188 53.25 C 33.851562 53.148438 33.339844 53.019531 32.839844 52.867188 C 32.335938 52.714844 31.839844 52.539062 31.355469 52.335938 C 30.867188 52.136719 30.394531 51.910156 29.929688 51.664062 C 29.464844 51.414062 29.015625 51.144531 28.578125 50.851562 C 28.140625 50.5625 27.71875 50.246094 27.3125 49.914062 C 26.90625 49.582031 26.515625 49.226562 26.144531 48.855469 C 25.773438 48.484375 25.417969 48.09375 25.085938 47.6875 C 24.753906 47.28125 24.4375 46.859375 24.148438 46.421875 C 23.855469 45.984375 23.585938 45.535156 23.335938 45.070312 C 23.089844 44.605469 22.863281 44.132812 22.664062 43.644531 C 22.460938 43.160156 22.285156 42.664062 22.132812 42.160156 C 21.980469 41.660156 21.851562 41.148438 21.75 40.632812 C 21.648438 40.117188 21.570312 39.597656 21.519531 39.074219 C 21.464844 38.550781 21.441406 38.027344 21.441406 37.5 Z M 39.285156 64.265625 L 39.285156 71.402344 L 48.207031 71.402344 C 48.441406 71.402344 48.671875 71.449219 48.890625 71.539062 C 49.109375 71.628906 49.300781 71.757812 49.46875 71.925781 C 49.636719 72.09375 49.765625 72.285156 49.855469 72.503906 C 49.945312 72.722656 49.992188 72.949219 49.992188 73.1875 C 49.992188 73.425781 49.945312 73.652344 49.855469 73.871094 C 49.765625 74.089844 49.636719 74.28125 49.46875 74.449219 C 49.300781 74.617188 49.109375 74.746094 48.890625 74.835938 C 48.671875 74.925781 48.441406 74.972656 48.207031 74.972656 L 26.792969 74.972656 C 26.558594 74.972656 26.328125 74.925781 26.109375 74.835938 C 25.890625 74.746094 25.699219 74.617188 25.53125 74.449219 C 25.363281 74.28125 25.234375 74.089844 25.144531 73.871094 C 25.054688 73.652344 25.007812 73.425781 25.007812 73.1875 C 25.007812 72.949219 25.054688 72.722656 25.144531 72.503906 C 25.234375 72.285156 25.363281 72.09375 25.53125 71.925781 C 25.699219 71.757812 25.890625 71.628906 26.109375 71.539062 C 26.328125 71.449219 26.558594 71.402344 26.792969 71.402344 L 35.714844 71.402344 L 35.714844 64.265625 C 34.875 64.210938 34.042969 64.117188 33.210938 63.984375 C 32.382812 63.847656 31.558594 63.675781 30.746094 63.464844 C 29.933594 63.253906 29.128906 63.003906 28.339844 62.71875 C 27.550781 62.429688 26.773438 62.105469 26.015625 61.746094 C 25.253906 61.386719 24.511719 60.992188 23.789062 60.5625 C 23.070312 60.132812 22.367188 59.667969 21.6875 59.171875 C 21.011719 58.675781 20.355469 58.148438 19.726562 57.589844 C 19.097656 57.03125 18.496094 56.445312 17.921875 55.832031 C 17.347656 55.214844 16.804688 54.578125 16.292969 53.910156 C 15.777344 53.246094 15.296875 52.554688 14.851562 51.84375 C 14.402344 51.132812 13.988281 50.402344 13.609375 49.652344 C 13.230469 48.902344 12.886719 48.132812 12.578125 47.351562 C 12.273438 46.570312 12.003906 45.773438 11.769531 44.964844 C 11.539062 44.15625 11.347656 43.339844 11.191406 42.511719 C 11.035156 41.6875 10.921875 40.855469 10.84375 40.015625 C 10.769531 39.179688 10.730469 38.339844 10.734375 37.5 C 10.734375 37.261719 10.78125 37.035156 10.871094 36.816406 C 10.960938 36.597656 11.089844 36.40625 11.257812 36.238281 C 11.425781 36.070312 11.617188 35.941406 11.835938 35.851562 C 12.054688 35.761719 12.28125 35.714844 12.519531 35.714844 C 12.753906 35.714844 12.984375 35.761719 13.203125 35.851562 C 13.421875 35.941406 13.613281 36.070312 13.78125 36.238281 C 13.949219 36.40625 14.078125 36.597656 14.167969 36.816406 C 14.257812 37.035156 14.304688 37.261719 14.304688 37.5 C 14.304688 38.257812 14.339844 39.019531 14.414062 39.773438 C 14.488281 40.53125 14.601562 41.28125 14.75 42.027344 C 14.898438 42.769531 15.082031 43.507812 15.300781 44.234375 C 15.523438 44.960938 15.777344 45.675781 16.070312 46.378906 C 16.359375 47.078125 16.683594 47.765625 17.042969 48.433594 C 17.398438 49.105469 17.789062 49.753906 18.210938 50.386719 C 18.632812 51.019531 19.085938 51.628906 19.570312 52.214844 C 20.050781 52.804688 20.558594 53.367188 21.097656 53.902344 C 21.632812 54.441406 22.195312 54.949219 22.785156 55.429688 C 23.371094 55.914062 23.980469 56.367188 24.613281 56.789062 C 25.246094 57.210938 25.894531 57.601562 26.566406 57.957031 C 27.234375 58.316406 27.921875 58.640625 28.621094 58.929688 C 29.324219 59.222656 30.039062 59.476562 30.765625 59.699219 C 31.492188 59.917969 32.230469 60.101562 32.972656 60.25 C 33.71875 60.398438 34.46875 60.511719 35.226562 60.585938 C 35.980469 60.660156 36.742188 60.695312 37.5 60.695312 C 38.257812 60.695312 39.019531 60.660156 39.773438 60.585938 C 40.53125 60.511719 41.28125 60.398438 42.027344 60.25 C 42.769531 60.101562 43.507812 59.917969 44.234375 59.699219 C 44.960938 59.476562 45.675781 59.222656 46.378906 58.929688 C 47.078125 58.640625 47.765625 58.316406 48.433594 57.957031 C 49.105469 57.601562 49.753906 57.210938 50.386719 56.789062 C 51.019531 56.367188 51.628906 55.914062 52.214844 55.429688 C 52.804688 54.949219 53.367188 54.441406 53.902344 53.902344 C 54.441406 53.367188 54.949219 52.804688 55.429688 52.214844 C 55.914062 51.628906 56.367188 51.019531 56.789062 50.386719 C 57.210938 49.753906 57.601562 49.105469 57.957031 48.433594 C 58.316406 47.765625 58.640625 47.078125 58.929688 46.378906 C 59.222656 45.675781 59.476562 44.960938 59.699219 44.234375 C 59.917969 43.507812 60.101562 42.769531 60.25 42.027344 C 60.398438 41.28125 60.511719 40.53125 60.585938 39.773438 C 60.660156 39.019531 60.695312 38.257812 60.695312 37.5 C 60.695312 37.261719 60.742188 37.035156 60.832031 36.816406 C 60.921875 36.597656 61.050781 36.40625 61.21875 36.238281 C 61.386719 36.070312 61.578125 35.941406 61.796875 35.851562 C 62.015625 35.761719 62.246094 35.714844 62.480469 35.714844 C 62.71875 35.714844 62.945312 35.761719 63.164062 35.851562 C 63.382812 35.941406 63.574219 36.070312 63.742188 36.238281 C 63.910156 36.40625 64.039062 36.597656 64.128906 36.816406 C 64.21875 37.035156 64.265625 37.261719 64.265625 37.5 C 64.269531 38.339844 64.230469 39.179688 64.15625 40.015625 C 64.078125 40.855469 63.964844 41.6875 63.808594 42.511719 C 63.652344 43.339844 63.460938 44.15625 63.230469 44.964844 C 62.996094 45.773438 62.726562 46.570312 62.421875 47.351562 C 62.113281 48.132812 61.769531 48.902344 61.390625 49.652344 C 61.011719 50.402344 60.597656 51.132812 60.148438 51.84375 C 59.703125 52.554688 59.222656 53.246094 58.707031 53.910156 C 58.195312 54.578125 57.652344 55.214844 57.078125 55.832031 C 56.503906 56.445312 55.902344 57.03125 55.273438 57.589844 C 54.644531 58.148438 53.988281 58.675781 53.3125 59.171875 C 52.632812 59.667969 51.929688 60.132812 51.210938 60.5625 C 50.488281 60.992188 49.746094 61.386719 48.984375 61.746094 C 48.226562 62.105469 47.449219 62.429688 46.660156 62.71875 C 45.871094 63.003906 45.066406 63.253906 44.253906 63.464844 C 43.441406 63.675781 42.617188 63.847656 41.789062 63.984375 C 40.957031 64.117188 40.125 64.210938 39.285156 64.265625 Z M 39.285156 64.265625 " fill-opacity="1" fill-rule="nonzero"/></g></svg>